<svg width="7" height="13" viewBox="0 0 7 13" fill="none" xmlns="http://www.w3.org/2000/svg">
<path d="M2.56057 8.60962C2.54949 8.55245 2.54394 8.49528 2.54394 8.43811C2.54394 8.36951 2.54394 8.30662 2.54394 8.24946C2.54394 7.8264 2.61599 7.46052 2.76009 7.15181C2.9042 6.84309 3.09264 6.56296 3.32542 6.31142C3.55819 6.04844 3.80206 5.80261 4.05701 5.57394C4.32304 5.33383 4.57799 5.08228 4.82185 4.8193C4.96595 4.65923 5.09343 4.48772 5.20428 4.30478C5.31512 4.1104 5.39826 3.91031 5.45368 3.7045C5.52019 3.49869 5.55344 3.30432 5.55344 3.12138C5.55344 2.73263 5.47031 2.40676 5.30404 2.14378C5.13777 1.88081 4.91053 1.68643 4.62233 1.56066C4.33413 1.42345 3.99604 1.35485 3.60808 1.35485C3.30879 1.35485 3.00396 1.40058 2.69359 1.49206C2.3943 1.57209 2.13381 1.71501 1.91211 1.92082C1.69042 2.1152 1.54078 2.38389 1.46318 2.72691H0C0.0554236 2.26956 0.18844 1.86937 0.39905 1.52636C0.620744 1.18334 0.897862 0.903213 1.2304 0.68597C1.56295 0.457292 1.92874 0.285785 2.32779 0.171446C2.73793 0.0571081 3.15914 -6.10352e-05 3.59145 -6.10352e-05C4.17894 -6.10352e-05 4.73317 0.10856 5.25416 0.325803C5.77514 0.531612 6.19636 0.857477 6.51781 1.3034C6.83927 1.74932 7 2.33244 7 3.05277C7 3.40722 6.95566 3.7388 6.86698 4.04752C6.77831 4.3448 6.64529 4.63064 6.46793 4.90506C6.30166 5.16804 6.10214 5.4253 5.86936 5.67684C5.58116 5.99699 5.29295 6.28855 5.00475 6.55153C4.71655 6.80307 4.47823 7.07749 4.28979 7.37477C4.10135 7.66061 4.00713 8.02649 4.00713 8.47241C4.00713 8.49528 4.00713 8.51815 4.00713 8.54102C4.00713 8.56388 4.00713 8.58675 4.00713 8.60962H2.56057ZM3.25891 12.3999C2.9707 12.3999 2.73238 12.3028 2.54394 12.1084C2.36659 11.914 2.27791 11.6682 2.27791 11.3709C2.27791 11.0736 2.36659 10.8278 2.54394 10.6334C2.73238 10.439 2.9707 10.3418 3.25891 10.3418C3.54711 10.3418 3.78543 10.439 3.97387 10.6334C4.16231 10.8278 4.25653 11.0736 4.25653 11.3709C4.25653 11.6682 4.16231 11.914 3.97387 12.1084C3.78543 12.3028 3.54711 12.3999 3.25891 12.3999Z" fill="#383838"/>
</svg>
